<svg xmlns="http://www.w3.org/2000/svg" viewBox="0 0 486.47 167.51"><defs><style>.cls-1{fill:#a8a9ac;}</style></defs><g id="Layer_3" data-name="Layer 3"><path class="cls-1" d="M211.91,115.89a13.53,13.53,0,0,1-3.1,1.87,44.07,44.07,0,0,1-5,2,46.39,46.39,0,0,1-6.52,1.61,44.41,44.41,0,0,1-7.59.64,46,46,0,0,1-15.62-2.57A33.77,33.77,0,0,1,153.57,99.9a42.08,42.08,0,0,1-2.94-16.2,42.08,42.08,0,0,1,2.94-16.2,33.94,33.94,0,0,1,8.24-12A35.44,35.44,0,0,1,174.48,48a49.25,49.25,0,0,1,16.26-2.56,54.51,54.51,0,0,1,12.88,1.44,55.52,55.52,0,0,1,10.32,3.48,14.24,14.24,0,0,0-1.39,4.06c-.35,1.71-.64,3.14-.85,4.28l-.64.21A39,39,0,0,0,208,56a30.47,30.47,0,0,0-4.44-3.1,28,28,0,0,0-5.83-2.51,23.32,23.32,0,0,0-7-1,32.86,32.86,0,0,0-11.71,2,24.9,24.9,0,0,0-9.41,6.25,29.13,29.13,0,0,0-6.26,10.7,46.81,46.81,0,0,0-2.25,15.34,46.87,46.87,0,0,0,2.25,15.35,29.08,29.08,0,0,0,6.26,10.69A24.93,24.93,0,0,0,179,116a33.08,33.08,0,0,0,11.71,2,25.15,25.15,0,0,0,7.11-1,39.3,39.3,0,0,0,6-2.3,36.44,36.44,0,0,0,4.92-2.89q2.19-1.55,3.69-2.73l.42.43Z"/><path class="cls-1" d="M249,78.25a4.79,4.79,0,0,0-2.09-1.18,9.73,9.73,0,0,0-3.15-.53,9,9,0,0,0-4.6,1.17,10.74,10.74,0,0,0-3.42,3.16,15,15,0,0,0-2.14,4.7,21.91,21.91,0,0,0-.75,5.83v11.77c0,3.13,0,5.79,0,8s.07,4,.11,5.46.13,2.8.27,4a19.33,19.33,0,0,0-4.28-.54,14.67,14.67,0,0,0-2.24.16c-.72.11-1.47.23-2.25.38.21-2.64.34-6,.37-10.22S225,101.1,225,95V91.62c0-2.79,0-6-.06-9.68s-.16-7.83-.37-12.46c.78.14,1.53.27,2.25.37A14.67,14.67,0,0,0,229,70a19.27,19.27,0,0,0,4.28-.53q-.44,3.85-.48,6.09c0,1.5-.06,2.93-.06,4.28L233,80a27.37,27.37,0,0,1,6.73-8.66,11.81,11.81,0,0,1,7.38-2.89,11.13,11.13,0,0,1,1.66.11,8.87,8.87,0,0,1,1.77.53,12.16,12.16,0,0,0-.65,3.9c-.07,1.75-.1,3.34-.1,4.76Z"/><path class="cls-1" d="M259.07,104.13q0-5.67.16-9.68t.16-8q0-3.74-.05-8.13t-.16-8.87a21,21,0,0,0,4.49.53,20.62,20.62,0,0,0,4.38-.53q-.54,6.31-.8,14.06T267,99.21a28.78,28.78,0,0,0,1,8.5A11.09,11.09,0,0,0,274.1,115a12.14,12.14,0,0,0,5.4,1.13,13.29,13.29,0,0,0,7.48-2,12.12,12.12,0,0,0,4.39-4.87c.49-1.14.91-2.16,1.23-3.05a14.69,14.69,0,0,0,.69-3.47c.14-1.43.23-3.35.27-5.78s.05-5.74.05-9.94V78q0-4.69-.21-8.55c.78.14,1.53.27,2.24.37a15.9,15.9,0,0,0,4.5,0c.71-.1,1.42-.23,2.13-.37q-.52,8.34-.64,16.15t-.1,16.36q0,4.82.1,9.46c.07,3.11.18,6.15.32,9.15a16.37,16.37,0,0,0-8.34,0c.14-1.57.22-3.11.22-4.6v-4.6h-.22a19.76,19.76,0,0,1-7.16,7.64,18.23,18.23,0,0,1-9.52,2.63q-8.34,0-13.1-4.6T259.07,104.13Z"/><path class="cls-1" d="M317.67,89.48q0-4.82-.16-10.11c-.1-3.53-.34-6.82-.69-9.89a24.4,24.4,0,0,0,4.81.53,22.72,22.72,0,0,0,4.28-.53c-.22,2.92-.32,5.77-.32,8.55h.21q5.65-9.61,15.89-9.62a17.54,17.54,0,0,1,5.22.8,18.52,18.52,0,0,1,4.64,2.19,14.86,14.86,0,0,1,3.57,3.37,11.3,11.3,0,0,1,2,4.23h.21a18.79,18.79,0,0,1,7-7.86,19.2,19.2,0,0,1,10.25-2.73,21.4,21.4,0,0,1,6.54,1,13.23,13.23,0,0,1,8.63,8.24,21.46,21.46,0,0,1,1.24,7.7c0,1.21,0,2.53-.11,4s-.15,3.09-.22,5-.14,4-.21,6.41-.11,5.15-.11,8.29c0,1.93,0,3.78.06,5.56s.12,3.82.26,6.1a21.48,21.48,0,0,0-4.59-.54,22,22,0,0,0-4.71.54c.21-2,.45-5.73.69-11.18s.38-13,.38-22.62a20.74,20.74,0,0,0-.59-5A11.31,11.31,0,0,0,380,77.71,9,9,0,0,0,376.57,75a12.49,12.49,0,0,0-5.37-1,13.24,13.24,0,0,0-6.55,1.5A12.87,12.87,0,0,0,360.46,79a11.26,11.26,0,0,0-1.34,2.35,13.87,13.87,0,0,0-.75,3.58c-.18,1.61-.31,3.85-.38,6.74s-.11,6.86-.11,11.92c0,1.57,0,3,.06,4.33s.07,2.66.1,4,.09,2.72.16,4.11.15,2.91.22,4.55a20.33,20.33,0,0,0-9.31,0q.48-6.1.67-12.25t.19-12q0-4.92-.05-7.81c0-1.92-.11-3.45-.22-4.59a9.49,9.49,0,0,0-.58-2.73c-.29-.68-.64-1.45-1.07-2.3a9.74,9.74,0,0,0-3.67-3.48A10.23,10.23,0,0,0,339.22,74q-6.93,0-10.28,4.6t-3.35,12.94v9.09q0,4.82.16,10.1t.69,9.9a21.69,21.69,0,0,0-9.62,0c.35-3.07.59-6.37.69-9.9s.16-6.89.16-10.1Z"/><path class="cls-1" d="M404.3,100.6q0-3.63-.06-7.92t-.16-8.5q-.1-4.22-.27-8.07c-.1-2.57-.23-4.78-.37-6.63a22.09,22.09,0,0,0,9.62,0c-.28,1.85-.5,3.63-.64,5.35s-.21,3.42-.21,5.13h.21a20.17,20.17,0,0,1,2.19-3.69,20.62,20.62,0,0,1,3.59-3.74,18.31,18.31,0,0,1,5.18-2.94,19.58,19.58,0,0,1,7.11-1.18,22,22,0,0,1,8,1.55,19.26,19.26,0,0,1,7,4.76,24,24,0,0,1,4.92,8.18,33.51,33.51,0,0,1,1.87,11.82,31.67,31.67,0,0,1-2,11.87A25.88,25.88,0,0,1,445,115a21.23,21.23,0,0,1-7.44,5,22.54,22.54,0,0,1-8.34,1.66,17.31,17.31,0,0,1-16.79-10.48h-.21v6.73c0,2.5,0,5.15.05,8s.09,5.61.16,8.39.16,5.44.27,8,.23,4.69.37,6.47a22.09,22.09,0,0,0-9.62,0c.14-1.78.27-3.94.37-6.47s.2-5.19.27-8,.12-5.58.16-8.39.06-5.47.06-8Zm38.6-6A35.33,35.33,0,0,0,441.56,84a19.9,19.9,0,0,0-3.42-6.68,11,11,0,0,0-4.76-3.48,15.44,15.44,0,0,0-5.24-1,14,14,0,0,0-7.38,1.82,15,15,0,0,0-4.92,4.86,21.68,21.68,0,0,0-2.78,7.17,42.85,42.85,0,0,0-.85,8.72q0,11,4,16.62t11.66,5.62a12.37,12.37,0,0,0,6.69-1.77,14.22,14.22,0,0,0,4.7-4.91,24.63,24.63,0,0,0,2.78-7.38A42.69,42.69,0,0,0,442.9,94.61Z"/><path class="cls-1" d="M468.05,123.82a8.78,8.78,0,1,1-8.76-8.54A8.59,8.59,0,0,1,468.05,123.82Zm-15.37,0a6.62,6.62,0,0,0,6.67,6.83,6.83,6.83,0,0,0-.06-13.65A6.63,6.63,0,0,0,452.68,123.82Zm5.26,4.48h-2v-8.54a16.94,16.94,0,0,1,3.28-.26,5.35,5.35,0,0,1,3,.62A2.39,2.39,0,0,1,463,122a2.17,2.17,0,0,1-1.77,2v.1a2.53,2.53,0,0,1,1.57,2.09,6.46,6.46,0,0,0,.62,2.13h-2.13a6.92,6.92,0,0,1-.68-2.08c-.16-.94-.68-1.36-1.77-1.36h-.94Zm.05-4.84h.94c1.09,0,2-.37,2-1.25s-.57-1.31-1.83-1.31A4.75,4.75,0,0,0,458,121Z"/><path class="cls-1" d="M56.2,40.08c6.57,2,12.28,7.48,15.09,10.54,1,1.07,1.59,1.82,1.71,2l23.9,26c2.09-1.78,9.09-8.16,11.37-15.5a24,24,0,0,0-1.48-17.2,48.39,48.39,0,0,0-64.35-6A24.83,24.83,0,0,1,56.2,40.08Z"/><path class="cls-1" d="M53.72,43.91a24,24,0,0,0-17.2,1.48,48.39,48.39,0,0,0-6,64.35A24.83,24.83,0,0,1,30.73,96c2.79-9,11.85-16.28,12.51-16.8l26-23.9c-.27-.32-.66-.77-1.15-1.3C65.37,51.05,59.92,45.83,53.72,43.91Z"/><path class="cls-1" d="M86.48,121.9c-6.58-2-12.28-7.48-15.09-10.54-1-1.07-1.59-1.82-1.71-2l-23.9-26c-2.1,1.78-9.1,8.16-11.37,15.5a23.89,23.89,0,0,0,1.48,17.2,48.39,48.39,0,0,0,64.35,6A24.83,24.83,0,0,1,86.48,121.9Z"/><path class="cls-1" d="M73.7,107.37c.28.33.67.77,1.15,1.3h0c2.7,2.94,8.16,8.15,14.35,10.07a23.93,23.93,0,0,0,17.2-1.48,48.39,48.39,0,0,0,6-64.35,24.83,24.83,0,0,1-.19,13.76c-2.79,9-11.83,16.27-12.51,16.8Z"/><path class="cls-1" d="M112.12,125.57l1.06-.09a2.37,2.37,0,0,0,.35,1,1.84,1.84,0,0,0,.86.66,3.21,3.21,0,0,0,1.3.26,3.32,3.32,0,0,0,1.14-.19,1.6,1.6,0,0,0,.73-.53,1.21,1.21,0,0,0,.24-.73,1,1,0,0,0-.23-.69,1.74,1.74,0,0,0-.76-.51c-.23-.09-.74-.22-1.52-.41a7.81,7.81,0,0,1-1.64-.53,2.27,2.27,0,0,1-.9-.79,2,2,0,0,1-.3-1.06,2.16,2.16,0,0,1,.36-1.2,2.23,2.23,0,0,1,1.07-.85,4.13,4.13,0,0,1,1.56-.29,4.36,4.36,0,0,1,1.67.3,2.37,2.37,0,0,1,1.11.9,2.64,2.64,0,0,1,.41,1.34l-1.08.08a1.71,1.71,0,0,0-.58-1.22,3,3,0,0,0-3,0,1.13,1.13,0,0,0-.47.91,1,1,0,0,0,.33.75,4.53,4.53,0,0,0,1.7.6,10.91,10.91,0,0,1,1.88.55,2.48,2.48,0,0,1,1.09.86,2.08,2.08,0,0,1,.36,1.21,2.32,2.32,0,0,1-.39,1.28,2.53,2.53,0,0,1-1.12.93,3.89,3.89,0,0,1-1.63.33,5,5,0,0,1-1.94-.33,2.76,2.76,0,0,1-1.22-1A2.88,2.88,0,0,1,112.12,125.57Z"/><path class="cls-1" d="M120.39,128.3v-8.5h1.69l2,6c.19.56.32,1,.41,1.26.09-.31.25-.77.45-1.36l2-5.92h1.52v8.5h-1.09v-7.11l-2.47,7.11h-1l-2.46-7.23v7.23Z"/></g></svg>