<svg id="Layer_1" data-name="Layer 1" xmlns="http://www.w3.org/2000/svg" viewBox="0 0 241.92 204.52"><defs><style>.cls-1{fill:#a7a9ac;}</style></defs><path class="cls-1" d="M10.33,116.84,57.54,53.38a.7.7,0,0,1,.51-.27l4.85-.35L88,27a.73.73,0,0,1,.42-.21l3-.38a.68.68,0,0,0,.47-.26l11.51-14.39,19.75,14.42.14.14L138.1,45.57l.08.13,5.34,10.95c.07.16,5.15,2.84,5.15,2.84-.08.29,9.42,4.71,9.42,4.71l.12.09,10.12,10,.25.16L195,84.54l.25.16,35,32.13-24.46-7-.22,0-5.72-8.57L190.09,98l-19.93,3.46,3.59-10.14-22.51,2-12.49,10.47L146,87.3H143.2l-19.39,14L112.07,90.16l-9.46,7.46,6-18.76L98.13,86.18l16-40.05a6.33,6.33,0,0,0,0-5.1l-7.85-17.68a2.84,2.84,0,0,0-4.68-.77L71.17,55.48A5.79,5.79,0,0,0,70,61.41L85.37,103l-19.2-33.3A3.3,3.3,0,0,0,61,69L11.09,116.84"/><path class="cls-1" d="M10.5,160V123H35.65v8.1H19.59v6.19H33.31v8.1H19.59v6.5H35.65V160Z"/><path class="cls-1" d="M58.41,160H51.65L39.44,123h9.41l6.23,20.68L61.21,123h9.46Z"/><path class="cls-1" d="M75.35,160V123H100.5v8.1H84.44v6.19H98.16v8.1H84.44v6.5H100.5V160Z"/><path class="cls-1" d="M127.05,160l-6.55-13.78h-3.07V160h-9.09V123H123c8.21,0,12.63,5.82,12.63,11.9a10.63,10.63,0,0,1-6,9.66l8,15.44Zm-4.47-28.84h-5.15v7.48h5.15a3.75,3.75,0,1,0,0-7.48Z"/><path class="cls-1" d="M142.69,160V123h25.15v8.1H151.78v6.19H165.5v8.1H151.78v6.5h16.06V160Z"/><path class="cls-1" d="M185.6,160.28c-5.66,0-10.28-1-14-4.89l5.82-5.82c1.93,1.93,5.3,2.6,8.27,2.6,3.58,0,5.3-1.19,5.3-3.33a3.08,3.08,0,0,0-.73-2.18,4.09,4.09,0,0,0-2.44-1l-4.47-.63c-3.28-.47-5.77-1.56-7.43-3.27s-2.55-4.26-2.55-7.43c0-6.76,5.09-11.69,13.51-11.69,5.3,0,9.3,1.24,12.47,4.41l-5.71,5.72c-2.34-2.34-5.41-2.18-7-2.18-3.17,0-4.47,1.81-4.47,3.43a2.45,2.45,0,0,0,.73,1.71,4.13,4.13,0,0,0,2.55,1.09l4.47.62c3.32.47,5.71,1.51,7.27,3.07,2,1.92,2.75,4.68,2.75,8.11C199.89,156.17,193.4,160.28,185.6,160.28Z"/><path class="cls-1" d="M220.94,131.07V160h-9.1v-28.9h-9.09V123H230v8.1Z"/><path class="cls-1" d="M13,172.43v3.25h5.21V178H13v5.37H10.46V170.13h8.7v2.3Z"/><path class="cls-1" d="M28.24,183.46a4.59,4.59,0,0,1-4.86-4.64v-8.69H26v8.6a2.29,2.29,0,1,0,4.58,0v-8.6H33.1v8.69A4.59,4.59,0,0,1,28.24,183.46Z"/><path class="cls-1" d="M46,183.35l-5.24-8.11v8.11H38.15V170.13h2.3l5.24,8.09v-8.09h2.58v13.22Z"/><path class="cls-1" d="M53.52,183.35V170.13h8.71v2.3H56.1v3.1h5.22v2.31H56.1v3.21h6.13v2.3Z"/><path class="cls-1" d="M73.94,183.35l-2.58-5.27H69.51v5.27H66.92V170.13H72.1a4,4,0,0,1,4.29,4.05A3.56,3.56,0,0,1,74,177.65l3,5.7Zm-2-10.92H69.51v3.49h2.43a1.75,1.75,0,1,0,0-3.49Z"/><path class="cls-1" d="M88.76,183.35,88,181h-4.7l-.8,2.34H79.79l4.81-13.22h2l4.83,13.22ZM85.67,174,84,178.84h3.29Z"/><path class="cls-1" d="M95.25,183.35V170.13h2.58v10.92h6v2.3Z"/><path class="cls-1" d="M119,183.46a4.87,4.87,0,0,1-3.56-1.45c-1.34-1.33-1.3-3-1.3-5.27s0-3.94,1.3-5.27A4.87,4.87,0,0,1,119,170a4.67,4.67,0,0,1,4.87,4.18h-2.62a2.19,2.19,0,0,0-2.23-1.88,2.13,2.13,0,0,0-1.65.69c-.5.56-.65,1.19-.65,3.73s.15,3.17.65,3.73a2.13,2.13,0,0,0,1.65.69,2.19,2.19,0,0,0,2.23-1.88h2.62A4.68,4.68,0,0,1,119,183.46Z"/><path class="cls-1" d="M136.26,182a5.13,5.13,0,0,1-7.15,0c-1.34-1.33-1.3-3-1.3-5.27s0-3.94,1.3-5.27a5.13,5.13,0,0,1,7.15,0c1.33,1.33,1.32,3,1.32,5.27S137.59,180.68,136.26,182Zm-1.91-9a2.16,2.16,0,0,0-1.66-.71A2.18,2.18,0,0,0,131,173c-.5.55-.63,1.17-.63,3.71s.13,3.16.63,3.71a2.18,2.18,0,0,0,1.67.71,2.16,2.16,0,0,0,1.66-.71c.5-.55.65-1.17.65-3.71S134.85,173.58,134.35,173Z"/><path class="cls-1" d="M150.2,183.35,145,175.24v8.11h-2.58V170.13h2.3l5.24,8.09v-8.09h2.58v13.22Z"/><path class="cls-1" d="M162.17,183.46a4.85,4.85,0,0,1-3.56-1.45c-1.34-1.33-1.3-3-1.3-5.27s0-3.94,1.3-5.27a4.85,4.85,0,0,1,3.56-1.45A4.67,4.67,0,0,1,167,174.2h-2.62a2.19,2.19,0,0,0-2.23-1.88,2.13,2.13,0,0,0-1.65.69c-.5.56-.65,1.19-.65,3.73s.15,3.17.65,3.73a2.13,2.13,0,0,0,1.65.69,2.19,2.19,0,0,0,2.23-1.88H167A4.68,4.68,0,0,1,162.17,183.46Z"/><path class="cls-1" d="M171.43,183.35V170.13H174v13.22Z"/><path class="cls-1" d="M179.27,183.35V170.13H188v2.3h-6.12v3.1h5.21v2.31h-5.21v3.21H188v2.3Z"/><path class="cls-1" d="M199.69,183.35l-2.58-5.27h-1.86v5.27h-2.58V170.13h5.18a4,4,0,0,1,4.29,4.05,3.55,3.55,0,0,1-2.42,3.47l3,5.7Zm-2-10.92h-2.43v3.49h2.43a1.75,1.75,0,1,0,0-3.49Z"/><path class="cls-1" d="M215.13,182a4.93,4.93,0,0,1-3.73,1.5,4.84,4.84,0,0,1-3.56-1.45c-1.34-1.33-1.3-3-1.3-5.27s0-3.94,1.3-5.27a5.06,5.06,0,0,1,8.54,2.78h-2.6a2.25,2.25,0,0,0-2.38-1.93,2.14,2.14,0,0,0-1.65.71c-.5.55-.63,1.17-.63,3.71s.13,3.17.63,3.73a2.13,2.13,0,0,0,1.65.69,2.45,2.45,0,0,0,1.84-.74,2.55,2.55,0,0,0,.59-1.77v-.5H211.4V176h5v1.93C216.39,179.84,216.06,181,215.13,182Z"/><path class="cls-1" d="M221.18,183.35V170.13h8.71v2.3h-6.13v3.1H229v2.31h-5.22v3.21h6.13v2.3Z"/><rect class="cls-1" x="10.42" y="165.03" width="219.54" height="1.54"/><rect class="cls-1" x="10.42" y="186.91" width="219.54" height="1.54"/></svg>