<svg xmlns="http://www.w3.org/2000/svg" viewBox="0 0 486.47 167.51"><defs><style>.cls-1,.cls-2{fill:#a8a9ac;}.cls-1{fill-rule:evenodd;}</style></defs><g id="Layer_3" data-name="Layer 3"><path class="cls-1" d="M90.46,76.76h-2c-.22-3.94,0-6.56-5.82-6.56H71.58V111c0,5.09,2.77,5.18,6.64,5.24v1.9c-3.51,0-6.64-.15-9.86-.15-3.49,0-6.92.08-10.56.15v-1.9c3.87-.06,6.64-.15,6.64-5.24V70.2H54.89c-6.56,0-6.85,1.82-8.1,6.56H44.9l.8-11.59h1.46c.8,2,2.77,2,4.59,2H84.84c2.63,0,4.45-.66,4.75-2h1.53l-.66,11.59Z"/><path class="cls-1" d="M94.72,100.05v12.69c0,3.84,2.08,3.88,5,3.94v1.42c-2.62,0-5-.11-7.38-.11-2.62,0-5.19.05-7.93.11v-1.42c2.74.17,5-.54,5-3.66V85.29c0-3.81-2.06-3.88-5-3.93V79.94c3,0,5.63.12,8.31.12,1.92,0,3.83-.12,7.33-.12,10.33,0,12.62,5.78,12.62,9.68,0,4.64-3.48,8.08-7.76,9.34,5,7.28,7.6,11.65,10,14.27,1.75,2,3.4,3.45,6.18,3.45v1.42c-1.37,0-2.73-.11-4.1-.11-1.53,0-3.12.05-4.65.11-5-5.47-8.64-11.86-12.57-18ZM98,81.69a18.27,18.27,0,0,0-3.28.32V98a14.84,14.84,0,0,0,2.89.28c6.73,0,9.35-4.44,9.35-8.37,0-4.75-2.52-8.25-9-8.25Z"/><path class="cls-1" d="M146.15,107.22c.76,2.14,2.24,6.77,3.11,8s2.46,1.48,4.21,1.48v1.42c-2.07,0-4.21-.11-6.27-.11-2.69,0-5.31.05-8,.11v-1.42h1c1.37,0,3-.28,3-1.81a13.32,13.32,0,0,0-.83-3.17l-2.72-7.92H126.8l-1.2,3.83a25.84,25.84,0,0,0-1.48,6.51c0,2.56,1.8,2.46,3.71,2.56h1.26v1.42c-2.13,0-4.31-.11-6.44-.11s-4.44.05-6.62.11v-1.42c3.34-.38,3.94-.82,5.31-3.88.87-2,1.53-4.09,2.24-6.13l7-19.51a16.74,16.74,0,0,0,1.15-4.93,5.77,5.77,0,0,0-.11-1.42,6.63,6.63,0,0,0,3.16-2.4h.93l10.45,28.81Zm-18.58-5.68h11.26L133,85.46h-.1l-5.3,16.08Z"/><path class="cls-1" d="M191.3,118.6H190L161.45,87.2v20.41c0,7.55.61,9.07,6.51,9.07v1.42c-2.41,0-4.86-.11-7.27-.11s-4.86.05-7.27.11v-1.42c3.34,0,5.85,0,5.85-6.94v-22c0-4.7-2-6.39-6.73-6.39V79.94c1.7,0,3.34.12,5,.12,1.48,0,3-.12,4.49-.12,2.24,3.33,7.32,8.31,13.55,15.2,4.65,5.14,9.78,10.54,13.5,14.6V88c0-5-1.15-6.57-6.61-6.62V79.94c2.51,0,5.08.12,7.59.12,2.13,0,4.21-.12,6.34-.12v1.42c-3.33,0-5.13.27-5.13,5.63V118.6Z"/><path class="cls-1" d="M198.67,109.08h1.25c.93,4.1,4,8.1,8.53,8.1a7.16,7.16,0,0,0,7.49-7.29c0-10.16-16.18-7.15-16.18-20.06,0-7,5-10.7,11.71-10.7a46.59,46.59,0,0,1,6.66.81l.87,7h-1.25c-.61-3.82-3.11-6.07-7.05-6.07-4.16,0-6.57,3-6.57,7C204.13,98,221,95.25,221,107.81c0,7.12-6.4,11.11-12.85,11.11a20,20,0,0,1-8.36-1.87l-1.09-8Z"/><path class="cls-1" d="M251.86,107.22c.76,2.14,2.23,6.77,3.11,8s2.46,1.48,4.22,1.48v1.42c-2.09,0-4.22-.11-6.3-.11-2.67,0-5.3.05-8,.11v-1.42h1c1.36,0,3-.28,3-1.81a13.72,13.72,0,0,0-.82-3.17l-2.73-7.92H232.51l-1.21,3.83a26.68,26.68,0,0,0-1.47,6.51c0,2.56,1.8,2.46,3.72,2.56h1.25v1.42c-2.13,0-4.32-.11-6.44-.11s-4.44.05-6.62.11v-1.42c3.33-.38,3.93-.82,5.3-3.88.88-2,1.52-4.09,2.24-6.13l7-19.51a16.43,16.43,0,0,0,1.16-4.93,5.3,5.3,0,0,0-.12-1.42,6.78,6.78,0,0,0,3.18-2.4h.92l10.45,28.81Zm-18.59-5.68h11.26l-5.84-16.08h-.12l-5.3,16.08Z"/><path class="cls-1" d="M285,110.61c4.92-10.23,10.23-20.3,14.77-30.67,1.48,0,3,.12,4.48.12s3.23-.12,4.81-.12v1.42c-1.86,0-3.12.12-3.83.65s-1,1.49-1,3.28c0,8.64.49,17.82.71,26.07.1,4.11.49,5.32,5.95,5.32v1.42c-3,0-6-.11-9-.11-2.68,0-5.31.05-8,.11v-1.42c1.92,0,3.28,0,4.22-.49s1.42-1.59,1.42-3.71l-.4-26.09H299l-12.91,26.79c-.59,1.31-1.68,4-2.12,5.42h-1.09c-4.64-10.45-9.9-20.68-15.08-31h-.11l-.45,19.8c0,.7,0,2.68,0,3.43,0,2.69.28,4.16,1.15,4.92s2.24.94,4.42.94v1.42c-2.24,0-4.53-.11-6.78-.11s-4.85.05-7.25.11v-1.42c3.87,0,6.28-.94,6.49-8.25.22-7.5.6-14.93.6-22.43,0-1.92-.28-3.12-1-3.77s-2-.87-3.76-.87V79.94c1.91,0,3.88.12,5.78.12,1.16,0,2.35-.12,3.51-.12L285,110.61Z"/><path class="cls-1" d="M324.39,97.21h7.22c4.43,0,4.43-3.44,4.59-4.7h1.09c-.11,1.2-.21,4.16-.21,6.13,0,1.74.26,4.31.21,6.06H336.2c0-5.24-1.75-5.24-6-5.24h-5.85v9.3c0,6.06.22,7.59,5.63,7.59h3.39c5.35-.27,7.76-1,9.89-6.84l1.31.23a79.2,79.2,0,0,0-2.25,8.36c-5.45,0-10.91-.11-16.38-.11-4.05,0-8.09,0-12.14.11v-1.42c4.76,0,5.2-.88,5.2-6.18V86.22c0-4.48-.87-4.7-5.2-4.86V79.94c3.67.12,7.38.12,11,.12,5.25,0,10.45,0,15.75-.12V88.1l-1.11.26c-.81-5.13-3.27-6.67-8.74-6.67h-6.39V97.21Z"/><path class="cls-1" d="M357.51,100.05v12.69c0,3.84,2.08,3.88,5,3.94v1.42c-2.61,0-5-.11-7.38-.11-2.62,0-5.18.05-7.93.11v-1.42c2.75.17,5-.54,5-3.66V85.29c0-3.81-2.08-3.88-5-3.93V79.94c3,0,5.64.12,8.32.12,1.91,0,3.82-.12,7.32-.12,10.33,0,12.63,5.78,12.63,9.68,0,4.64-3.5,8.08-7.77,9.34,5,7.28,7.6,11.65,10,14.27,1.74,2,3.39,3.45,6.18,3.45v1.42c-1.37,0-2.75-.11-4.11-.11-1.53,0-3.12.05-4.65.11-5-5.47-8.63-11.86-12.57-18Zm3.27-18.36a18.44,18.44,0,0,0-3.27.32V98a14.94,14.94,0,0,0,2.9.28c6.72,0,9.34-4.44,9.34-8.37,0-4.75-2.51-8.25-9-8.25Z"/><path class="cls-1" d="M388.61,85.29c0-3.81-2.08-3.88-5-3.93V79.94c2.56,0,5.08.12,7.53.12s5-.07,7.76-.12v1.42c-2.9,0-5,.12-5,3.93v27.45c0,3.84,2.06,3.88,5,3.94v1.42c-2.62,0-5-.11-7.37-.11-2.61,0-5.19.05-7.92.11v-1.42c2.89-.06,5-.1,5-3.94V85.29Z"/><path class="cls-1" d="M436.75,89.83h-1.37c-1-6.39-5.58-9-11.68-9-6.3,0-15.43,4.22-15.43,17.35,0,11,7.88,19,16.29,19,5.41,0,9.9-3.73,11-9.47l1.26.33-1.26,8c-2.29,1.42-8.47,2.9-12.07,2.9-12.8,0-20.88-8.26-20.88-20.56,0-11.2,10-19.23,20.71-19.23,4.43,0,8.69,1.41,12.89,2.88l.55,7.82Z"/><path class="cls-1" d="M467.25,107.22c.76,2.14,2.24,6.77,3.11,8s2.47,1.48,4.21,1.48v1.42c-2.07,0-4.21-.11-6.28-.11-2.68,0-5.3.05-8,.11v-1.42h1c1.38,0,3-.28,3-1.81a13.62,13.62,0,0,0-.81-3.17l-2.73-7.92H447.91l-1.21,3.83a26.22,26.22,0,0,0-1.47,6.51c0,2.56,1.8,2.46,3.71,2.56h1.25v1.42c-2.12,0-4.31-.11-6.44-.11s-4.43.05-6.62.11v-1.42c3.34-.38,3.94-.82,5.31-3.88.88-2,1.52-4.09,2.25-6.13l7-19.51a16.74,16.74,0,0,0,1.16-4.93,5.77,5.77,0,0,0-.11-1.42,6.73,6.73,0,0,0,3.16-2.4h.93l10.44,28.81Zm-18.58-5.68h11.25l-5.84-16.08H454l-5.3,16.08Z"/><path class="cls-2" d="M466,84.33a5.93,5.93,0,1,0,5.93-5.93A5.94,5.94,0,0,0,466,84.33m.91,0a5,5,0,1,1,5,5,5,5,0,0,1-5-5"/><path class="cls-2" d="M470.46,82.05h1.89a1.43,1.43,0,0,1,.64.12.85.85,0,0,1,.45.83.89.89,0,0,1-.32.79,1.47,1.47,0,0,1-.87.23h-1.79Zm0,5.06V84.66h1.77a1.64,1.64,0,0,1,.69.11.76.76,0,0,1,.42.75l.05,1a2.92,2.92,0,0,0,0,.46,1.89,1.89,0,0,0,.06.18h.95V87a.51.51,0,0,1-.25-.36,2.42,2.42,0,0,1-.05-.48l0-.77a1.61,1.61,0,0,0-.19-.72,1.23,1.23,0,0,0-.51-.36,1.45,1.45,0,0,0,.59-.53,1.54,1.54,0,0,0,.21-.84,1.34,1.34,0,0,0-.8-1.35,2.63,2.63,0,0,0-1.09-.19h-2.65v5.72Z"/><path class="cls-2" d="M58.5,132h2.72v16H72.38v2.36H58.5Z"/><path class="cls-2" d="M76.48,132H79.2v18.36H76.48Z"/><path class="cls-2" d="M85,132H99.26v2.37H87.77v5.43h11v2.36h-11v8.2H85Z"/><path class="cls-2" d="M103.23,132H118v2.37H106v5.32h11.67v2.37H106V148h12.29v2.36h-15Z"/><path class="cls-2" d="M134,132h2.72v18.36H134Z"/><path class="cls-2" d="M145.34,135.75h-.06v14.6h-2.72V132h3.16l11.8,14.61h.06V132h2.72v18.36h-3.16Z"/><path class="cls-2" d="M167.1,144.31c.05,3.29,3.13,4.14,5.91,4.14s5-1.1,5-3.11c0-1.67-1.31-2.36-3.42-2.72l-4.16-.7c-2.19-.36-5.45-1.23-5.45-4.81,0-3.34,2.65-5.58,7.35-5.58,3.68,0,7.56,1.34,7.82,5.76h-2.73c-.23-1.44-1-3.39-5.45-3.39-2,0-4.27.85-4.27,3,0,1.13.75,2,3,2.41l4.5.78c1.44.25,5.53,1,5.53,4.7,0,4.68-4.19,6-7.89,6-4.14,0-8.44-1.44-8.44-6.51Z"/><path class="cls-2" d="M184.61,132h2.73v11.76c0,3.31,2.21,4.7,5.58,4.7s5.58-1.39,5.58-4.7V132h2.72v11.42c0,4.91-2.72,7.41-8.3,7.41s-8.31-2.5-8.31-7.41Z"/><path class="cls-2" d="M206.81,132h11.37a4.62,4.62,0,0,1,5,4.89,4.4,4.4,0,0,1-3.08,4.53v.05c1.62.23,2.57,1.75,2.67,3.91.16,3.42.26,4.26.87,5h-2.88c-.43-.51-.43-1.28-.56-3.49-.18-3.29-1.29-4.3-3.55-4.3h-7.12v7.79h-2.73Zm10.34,8.21c2.67,0,3.32-1.62,3.32-2.91,0-1.75-1.06-2.93-3.24-2.93h-7.69v5.84Z"/><path class="cls-2" d="M240,145h-9l-2.34,5.34h-2.93L234,132h3.12l8.3,18.36h-3.11Zm-4.53-10.5L232,142.64h7Z"/><path class="cls-2" d="M251.77,135.75h-.05v14.6H249V132h3.16L264,146.6H264V132h2.73v18.36h-3.16Z"/><path class="cls-2" d="M287.21,138.6c-.41-2.54-2.41-4.7-6.27-4.7-4.35,0-7.1,2.49-7.1,7.51,0,3.47,1.88,7,7,7,3.21,0,5.65-1.54,6.42-5.12h2.73c-.44,4.07-3.93,7.49-9.18,7.49-4.63,0-9.64-2.55-9.64-9.7,0-5.35,3.34-9.59,9.61-9.59,3.68,0,8.75,1.57,9.21,7.07Z"/><path class="cls-2" d="M294.39,132h14.76v2.37h-12v5.32h11.67v2.37H297.12V148h12.29v2.36h-15Z"/><path class="cls-2" d="M339.46,138.6c-.42-2.54-2.42-4.7-6.28-4.7-4.34,0-7.1,2.49-7.1,7.51,0,3.47,1.88,7,6.95,7,3.21,0,5.65-1.54,6.43-5.12h2.72c-.44,4.07-3.93,7.49-9.18,7.49-4.63,0-9.64-2.55-9.64-9.7,0-5.35,3.34-9.59,9.62-9.59,3.67,0,8.74,1.57,9.2,7.07Z"/><path class="cls-2" d="M355.59,131.53c7.37,0,10.2,4.94,10.2,9.64s-2.83,9.65-10.2,9.65-10.21-4.94-10.21-9.65S348.2,131.53,355.59,131.53Zm0,2.37c-4.2,0-7.49,2.42-7.49,7.27s3.29,7.28,7.49,7.28,7.48-2.42,7.48-7.28S359.78,133.9,355.59,133.9Z"/><path class="cls-2" d="M388.27,132h3.78v18.36h-2.72V135.13h-.05l-7.15,15.22h-2.42l-7.12-14.91h0v14.91h-2.73V132h3.83l7.28,15.23Z"/><path class="cls-2" d="M397.7,132h9.46c4,0,6.14,1.86,6.14,5.28s-2.1,5.73-6,5.73h-6.92v7.35H397.7Zm9.28,8.64c2.7,0,3.6-1.46,3.6-3.31a2.78,2.78,0,0,0-3.11-3h-7.05v6.27Z"/><path class="cls-2" d="M426.65,145h-9l-2.34,5.34h-2.93L420.69,132h3.11l8.3,18.36H429Zm-4.52-10.5-3.45,8.13h7Z"/><path class="cls-2" d="M437.54,135.75h-.05v14.6h-2.73V132h3.16l11.81,14.61h0V132h2.72v18.36h-3.16Z"/><path class="cls-2" d="M470.92,132h3.32l-8.1,10.68v7.68h-2.73V142.8l-8-10.81h3.47l6,8.36Z"/><path class="cls-2" d="M24,69.85h2.56l.16,2.76H24ZM24,65h2.3l.15,2.76H24Zm0-4.92h2L26.2,63H24Zm0-4.71h1.76l.15,2.66H24Zm0-4.81h1.5l.15,2.77H24Zm14.33,65.21H24V113H37.94L37.63,111H24v-2.76H37.33l-.31-2H24v-2.76H36.61l-.31-2H24V98.71H35.89l-.3-2H24V93.9H35.28L35,91.85H24V89.09H34.56l-.3-2H24V84.27h9.82l-.3-2H24V79.47h9.21l-.3-2H24V74.66h8.49l-.3-2H27.34l1.49-26.82H25.25l.15,2.77H24V13.25L19.28,45.79H16l.89,16.1-8.16,56H38.66Z"/><polygon class="cls-2" points="31.49 67.61 29.55 67.61 29.44 69.66 31.8 69.66 31.49 67.61"/><polygon class="cls-2" points="30.88 62.8 29.85 62.8 29.75 64.85 31.18 64.85 30.88 62.8"/></g></svg>